<?xml version="1.0" encoding="UTF-8"?>
<svg width="221px" height="52px" viewBox="0 0 221 52" version="1.1" xmlns="http://www.w3.org/2000/svg" xmlns:xlink="http://www.w3.org/1999/xlink">
    <!-- Generator: Sketch 57 (83077) - https://sketch.com -->
    <title>Group 17 Copy</title>
    <desc>Created with Sketch.</desc>
    <defs>
        <polygon id="path-1" points="0.298179757 0.684425915 38.3446852 0.684425915 38.3446852 38.8204225 0.298179757 38.8204225"></polygon>
    </defs>
    <g id="Page-1-Copy-2" stroke="none" stroke-width="1" fill="none" fill-rule="evenodd">
        <g id="Brand-Presentation-Copy-17" transform="translate(-709.000000, -324.000000)">
            <g id="Group-17-Copy" transform="translate(709.000000, 324.000000)">
                <path d="M211.341617,16.2200599 C209.872601,18.3818028 208.438982,20.4914155 207.068416,22.5078592 C205.794088,22.1052359 204.609361,21.6216444 203.377069,21.3598838 C197.473347,20.1065387 191.342857,24.3978592 190.289767,30.3684401 C189.12827,36.9512746 193.824035,42.3306761 199.092805,43.4475951 C205.05073,44.7109225 211.377015,40.4706232 212.354885,34.4401479 C212.488734,33.6160458 212.560636,32.7708697 212.561742,31.9345669 C212.575016,21.926662 212.570591,11.918757 212.570591,1.91085211 L212.570591,1.11558803 L220.27408,1.11558803 C220.284035,1.33963732 220.301734,1.55148592 220.301734,1.76333451 C220.302841,11.8910282 220.230938,22.019831 220.323858,32.1475246 C220.406822,41.199338 214.126997,48.8014859 205.894751,50.8889155 C195.472254,53.5331408 184.580734,46.5532289 182.66703,35.9741092 C180.803105,25.6656232 187.272088,15.9039507 197.484409,13.7666092 C202.184599,12.7827887 206.679038,13.5214859 210.872594,15.9194789 C211.009761,15.9982289 211.139185,16.0902887 211.341617,16.2200599" id="Fill-1" fill="#1CD070"></path>
                <path d="M150.661271,50.5540616 L142.96442,50.5540616 C142.950039,50.4076532 142.930128,50.2911919 142.931234,50.1758398 C142.940084,43.6506813 142.844952,37.1233046 142.994287,30.6014736 C143.108224,25.6490968 145.230998,21.4964208 148.853761,18.1556461 C151.690025,15.541368 155.050622,13.9497306 158.885773,13.5071778 C164.154544,12.8993609 168.840353,14.3734278 172.861344,17.8206813 C176.377913,20.8342553 178.452014,24.6885687 179.103559,29.2893433 C179.20754,30.0191673 179.254,30.7645194 179.255106,31.5021074 C179.267274,37.6867553 179.261743,43.8725123 179.263171,50.0571602 L179.263171,50.5540616 L171.486353,50.5540616 L171.486353,49.8586215 C171.486353,43.8336919 171.489671,37.8087623 171.485247,31.7838327 C171.480822,26.6218257 168.102526,22.4458574 163.061631,21.3577764 C157.569411,20.1720898 151.86259,24.0164208 150.885827,29.5832694 C150.744235,30.3862975 150.673439,31.212618 150.67012,32.0278468 C150.652421,37.9518433 150.661271,43.8769489 150.661271,49.8020546 L150.661271,50.5540616 Z" id="Fill-3" fill="#1CD070"></path>
                <g id="Group-7" transform="translate(101.769231, 12.697717)">
                    <mask id="mask-2" fill="white">
                        <use xlink:href="#path-1"></use>
                    </mask>
                    <g id="Clip-6"></g>
                    <path d="M8.58157977,16.5207518 C9.80834147,12.3248187 13.3470346,9.12934331 17.9255438,8.60914965 C23.6666559,7.95585739 28.3989251,11.303287 29.9509059,16.4686215 C25.4055823,16.4852588 15.4189234,16.5030053 8.58157977,16.5207518 M29.7318808,3.85752993 C20.8314978,-2.2250757 8.32826288,0.757441901 2.91458227,10.0687975 C-0.0256635452,15.1254349 -0.38296204,20.8475651 1.31835401,25.8531813 L1.30950452,25.8531813 C1.33273445,25.9219489 1.36260151,25.9862799 1.38693763,26.0550475 C1.49534398,26.3622835 1.61149365,26.6673011 1.73649281,26.9689912 C1.79622692,27.1153996 1.85485485,27.2606989 1.91901371,27.4048891 C2.06171187,27.7320898 2.21657809,28.0548539 2.37918763,28.3742905 C2.44887742,28.5107165 2.5207796,28.6460335 2.59378796,28.7802412 C2.75086656,29.0708398 2.91568846,29.3570018 3.08714749,29.6398363 C3.13471355,29.7174771 3.18006722,29.7973363 3.22873946,29.8749771 C3.46656973,30.2543081 3.71988662,30.625875 3.98647776,30.9885687 C4.00196438,31.0107518 4.01966338,31.0318257 4.03625619,31.0540088 C4.29952876,31.4111567 4.57718177,31.7583222 4.86810903,32.0977236 C4.88580803,32.1187975 4.90350702,32.1409806 4.92120602,32.1609454 C5.51080385,32.845294 6.15128629,33.4908222 6.84265334,34.090875 C6.92229883,34.1596426 7.00194431,34.2250827 7.08269599,34.291632 C7.29840251,34.4746426 7.51963997,34.6521074 7.74640836,34.8240264 C7.91454883,34.9560158 8.08490167,35.0846778 8.25857308,35.2100123 C8.29397107,35.2355229 8.33158144,35.2599243 8.36808562,35.2854349 C11.3625346,37.4161215 14.9432629,38.6994137 18.6877069,38.8125475 C23.4863473,38.9567377 28.1146349,37.2109278 31.6743457,34.1485511 L25.8491634,28.8634278 C23.9962997,30.2077236 21.7297219,31.0107518 19.2817294,31.0096426 C18.8635906,31.0096426 18.4543013,30.9741496 18.0483306,30.9297835 C17.8093941,30.8998363 17.5737763,30.8632342 17.3425831,30.8199771 C17.1976726,30.7944665 17.052762,30.7667377 16.9100639,30.7345722 C16.5970129,30.6646954 16.2872804,30.5881637 15.9875037,30.4949947 C15.9443624,30.4805757 15.9012211,30.4650475 15.8569736,30.4506285 C14.4277796,29.9858926 13.154558,29.2616144 12.0749192,28.3443433 C12.0583264,28.3299243 12.0417336,28.3177236 12.026247,28.3044137 C11.7563373,28.0726004 11.4985957,27.8296954 11.2541283,27.5756989 C11.2508097,27.5723715 11.2474911,27.5679349 11.2441726,27.5657165 C10.3437361,26.6273715 9.64351957,25.5281989 9.11365585,24.3524947 C13.6246876,24.3635863 19.2883666,24.3724595 19.3215522,24.3713504 C27.3867637,24.3247658 29.2849811,24.2726356 37.3490865,24.2338151 C37.6897921,24.232706 37.8081542,24.089625 37.8524017,23.7923715 C38.0127988,22.7464384 38.2816023,21.7049419 38.3247436,20.6545722 C38.6234142,13.4395194 35.5581692,7.83828697 29.7318808,3.85752993" id="Fill-5" fill="#1CD070" mask="url(#mask-2)"></path>
                </g>
                <path d="M34.9253195,30.9276761 L20.0924541,30.9276761 L20.0924541,22.8241901 L43.0159733,22.8241901 C43.0270352,23.0060915 43.0469466,23.1802289 43.0469466,23.3543662 C43.0480528,30.2200352 43.0524775,37.0857042 43.0336723,43.9513732 C43.0325661,44.222007 42.8788061,44.5758275 42.6763738,44.7499648 C39.2040519,47.751338 35.2726623,49.8764789 30.7505686,50.7638028 C23.1300444,52.2600528 16.1599583,50.6983627 9.99075176,45.9667077 C4.91998921,42.0769014 1.70540895,36.9282042 0.506301923,30.6270951 C-0.928422993,23.0948239 0.692141388,16.208081 5.31157952,10.0966373 C9.17327935,4.98676056 14.2805461,1.7325 20.5636899,0.517975352 C28.2295678,-0.964964789 35.1952292,0.746461268 41.3821347,5.54133803 C42.1697401,6.15137324 42.8965051,6.83794014 43.5945093,7.44021127 C41.6719558,9.36681338 39.789225,11.2534859 37.8910076,13.1567958 C37.2571623,12.643257 36.5458839,12.0077113 35.7770837,11.4509155 C25.4884357,4.01403169 10.9243738,9.77165493 8.44983286,22.2463204 C6.54940309,31.8283099 12.9896255,41.2772007 22.5415528,42.9198592 C26.8291347,43.656338 30.8114089,42.7435035 34.5724457,40.6671655 C34.7295243,40.5795423 34.9098329,40.3532746 34.910939,40.191338 C34.9308504,37.1300704 34.9253195,34.069912 34.9253195,30.9276761" id="Fill-8" fill="#000000"></path>
                <path d="M54.2760602,32.1846813 C54.2661193,38.4003856 59.2760416,43.4304032 65.4773275,43.4326231 C71.634366,43.4359489 76.6907481,38.4070405 76.7140571,32.2589947 C76.7372079,26.139787 71.6410031,20.9633609 65.5824153,20.9511382 C59.3722798,20.9389595 54.2860307,25.9933785 54.2760602,32.1846813 M84.474988,32.2534489 C84.4064044,43.5257905 74.9938568,51.540544 64.8821987,51.2355264 C55.1223083,50.9404912 46.3989153,42.7682377 46.5106402,32.0759842 C46.6223651,21.6177623 55.1776176,13.0850335 65.5724596,13.1582377 C75.9960625,13.2314419 84.5468902,21.8695405 84.474988,32.2534489" id="Fill-10" fill="#000000"></path>
                <path d="M96.7918304,34.8092746 L96.7697067,34.8092746 L96.7697067,1.13089437 L88.7974149,1.13089437 L88.7974149,35.4248556 L88.8151139,35.4248556 C88.9887853,42.056493 92.2907543,47.5579014 97.2663848,50.9286232 L101.62255,44.2182359 C98.2851833,41.6383415 96.7862995,38.4883415 96.7918304,34.8092746" id="Fill-12" fill="#1CD070"></path>
                <path d="M102.867232,32.9223803 C102.867232,32.9711831 102.860595,33.0199859 102.859489,33.0687887 L103.224531,32.9223803 L102.867232,32.9223803 Z" id="Fill-14" fill="#20C652"></path>
            </g>
        </g>
    </g>
</svg>